<?xml version="1.0" encoding="utf-8"?>
<!-- Generator: Adobe Illustrator 26.3.1, SVG Export Plug-In . SVG Version: 6.00 Build 0)  -->
<svg version="1.1" id="Laag_1" xmlns="http://www.w3.org/2000/svg" xmlns:xlink="http://www.w3.org/1999/xlink" x="0px" y="0px"
	 viewBox="0 0 250 50" style="enable-background:new 0 0 250 50;" xml:space="preserve">
<style type="text/css">
	.st0{fill:#947798;}
	.st1{fill:#FDE8C8;}
</style>
<rect x="0" class="st0" width="250" height="50"/>
<g>
	<g transform="translate(63.866173, 71.7541)">
		<g>
			<path class="st1" d="M-46.7-64.8c0.8,0,1.7,0.1,2.7,0.2c1.1,0.1,2.1,0.2,3.2,0.3c1.1,0.1,2.1,0.1,3.1,0.1c1,0,1.7-0.2,2.2-0.5
				l-0.7,2.1c-0.2,0.7-0.5,1.1-0.8,1.4c-0.3,0.2-0.9,0.3-1.7,0.4c-0.7,0-1.5,0-2.4-0.2c-0.9-0.1-1.9-0.2-2.9-0.4c-1-0.1-2-0.3-3-0.4
				c-1-0.1-1.9-0.2-2.8-0.3c-1.8-0.2-3.2,0-4,0.6c-0.9,0.6-1.4,1.3-1.6,2.3c-0.3,1.2-0.3,2.4-0.2,3.7c0.2,1.3,0.5,2.5,1,3.6
				c0.5,1.2,1.3,2.2,2.2,3.1c0.9,0.9,2,1.6,3.2,2.2c1.2,0.5,2.4,0.9,3.7,1c1.3,0.1,2.6,0,3.9-0.3c1.3-0.4,2.5-1,3.5-1.9
				c1-0.9,1.8-2,2.3-3.3h0.5c-0.6,1.6-1.4,3-2.5,4.3c-1.1,1.2-2.3,2.2-3.8,2.9c-1.5,0.7-3.2,1-5,1c-1.6,0-3-0.3-4.4-0.8
				c-1.4-0.6-2.6-1.3-3.6-2.3c-1-1-1.8-2.2-2.4-3.5c-0.6-1.3-0.9-2.7-0.9-4.2c0-1.7,0.4-3.2,1.1-4.6c0.7-1.4,1.7-2.7,2.9-3.7
				c1-0.8,2.1-1.4,3.4-1.9C-49.4-64.6-48.1-64.8-46.7-64.8z"/>
		</g>
	</g>
</g>
<g>
	<g transform="translate(112.529, 71.7541)">
		<g>
			<path class="st1" d="M-71.1-64.8c1.5,0,3,0.3,4.4,0.8c1.4,0.6,2.6,1.3,3.6,2.3c1,1,1.9,2.2,2.4,3.5c0.6,1.3,0.9,2.7,0.9,4.2
				c0,1.5-0.3,2.9-0.9,4.2c-0.6,1.3-1.4,2.5-2.4,3.5c-1,1-2.3,1.8-3.6,2.3c-1.4,0.6-2.8,0.8-4.4,0.8c-1.6,0-3-0.3-4.4-0.8
				c-1.4-0.6-2.6-1.3-3.6-2.3c-1-1-1.9-2.2-2.4-3.5c-0.6-1.3-0.9-2.7-0.9-4.2c0-1.5,0.3-2.9,0.9-4.2c0.6-1.3,1.4-2.5,2.4-3.5
				c1-1,2.2-1.8,3.6-2.3C-74.1-64.5-72.6-64.8-71.1-64.8z M-64.8-45.4c0.9-0.6,1.6-1.4,2-2.4c0.5-1,0.7-2.1,0.7-3.3
				c0-1.2-0.2-2.4-0.6-3.7c-0.4-1.3-1.1-2.5-1.9-3.7c-0.9-1.2-1.8-2.2-3-3c-1.1-0.8-2.2-1.4-3.4-1.8c-1.2-0.4-2.3-0.5-3.4-0.4
				c-1.1,0.1-2.1,0.4-3,1.1c-0.9,0.6-1.6,1.4-2,2.4c-0.5,1-0.7,2.1-0.7,3.2c0,1.2,0.2,2.4,0.6,3.7c0.4,1.3,1.1,2.5,1.9,3.7
				c0.9,1.2,1.9,2.2,3,3c1.1,0.8,2.2,1.4,3.4,1.8c1.2,0.4,2.3,0.5,3.4,0.4C-66.7-44.4-65.7-44.8-64.8-45.4z"/>
		</g>
	</g>
</g>
<g>
	<g transform="translate(161.127123, 71.7541)">
		<g>
			<path class="st1" d="M-103.1-61.4l0,9c0,1.3,0.1,2.5,0.2,3.4c0.1,0.9,0.4,1.7,0.9,2.2c0.4,0.5,1.1,0.9,2,1c0.9,0.1,2,0.1,3.5-0.2
				c1.1-0.2,2.3-0.4,3.4-0.6c1.2-0.2,2.1-0.3,2.9-0.3c0.7,0,1.1,0.1,1.4,0.4c0.3,0.2,0.5,0.7,0.7,1.3l0.6,2.1
				c-0.4-0.3-1-0.5-1.7-0.5c-0.7-0.1-1.5,0-2.4,0.1c-0.9,0.1-1.7,0.2-2.5,0.3c-0.8,0.1-1.5,0.2-2.2,0.2c-0.8,0-1.7-0.2-2.6-0.5
				c-0.9-0.3-1.7-0.8-2.4-1.4c-0.7-0.6-1.3-1.4-1.7-2.3c0,0.7,0,1.4,0,2.1c0,0.7,0,1.4,0,2.1h-3.6c0,0,0.1-0.3,0.2-1
				c0.1-0.7,0.2-1.5,0.2-2.4v-14.9c0-0.9-0.1-1.7-0.2-2.4c-0.1-0.7-0.2-1-0.2-1h3.9c0,0-0.1,0.3-0.2,1
				C-103.1-63.1-103.1-62.3-103.1-61.4z"/>
		</g>
	</g>
</g>
<g>
	<g transform="translate(203.189343, 71.7541)">
		<g>
			<path class="st1" d="M-116.5-64.8c1.5,0,3,0.3,4.4,0.8c1.4,0.6,2.6,1.3,3.6,2.3c1,1,1.9,2.2,2.4,3.5c0.6,1.3,0.9,2.7,0.9,4.2
				c0,1.5-0.3,2.9-0.9,4.2c-0.6,1.3-1.4,2.5-2.4,3.5c-1,1-2.3,1.8-3.6,2.3c-1.4,0.6-2.8,0.8-4.4,0.8c-1.6,0-3-0.3-4.4-0.8
				c-1.4-0.6-2.6-1.3-3.6-2.3c-1-1-1.9-2.2-2.4-3.5c-0.6-1.3-0.9-2.7-0.9-4.2c0-1.5,0.3-2.9,0.9-4.2c0.6-1.3,1.4-2.5,2.4-3.5
				c1-1,2.2-1.8,3.6-2.3C-119.5-64.5-118.1-64.8-116.5-64.8z M-110.2-45.4c0.9-0.6,1.6-1.4,2-2.4c0.5-1,0.7-2.1,0.7-3.3
				c0-1.2-0.2-2.4-0.6-3.7c-0.4-1.3-1.1-2.5-1.9-3.7c-0.9-1.2-1.8-2.2-3-3c-1.1-0.8-2.2-1.4-3.4-1.8c-1.2-0.4-2.3-0.5-3.4-0.4
				c-1.1,0.1-2.1,0.4-3,1.1c-0.9,0.6-1.6,1.4-2,2.4c-0.5,1-0.7,2.1-0.7,3.2c0,1.2,0.2,2.4,0.6,3.7c0.4,1.3,1.1,2.5,1.9,3.7
				c0.9,1.2,1.9,2.2,3,3c1.1,0.8,2.2,1.4,3.4,1.8c1.2,0.4,2.3,0.5,3.4,0.4C-112.1-44.4-111.1-44.8-110.2-45.4z"/>
		</g>
	</g>
</g>
<g>
	<g transform="translate(251.78746, 71.7541)">
		<g>
			<path class="st1" d="M-148.5-46.5c0,0.9,0.1,1.7,0.2,2.4c0.1,0.7,0.2,1,0.2,1h-3.9c0,0,0.1-0.3,0.2-1c0.1-0.7,0.2-1.5,0.2-2.4
				v-14.9c0-0.9-0.1-1.7-0.2-2.4c-0.1-0.7-0.2-1-0.2-1h11.5c1.2,0,2.3,0.2,3.3,0.6c1,0.4,1.9,1,2.5,1.8c0.6,0.8,1,1.8,1,3.1
				c0,1.2-0.2,2.1-0.7,2.8c-0.5,0.7-1.2,1.3-2,1.7c-0.8,0.4-1.7,0.7-2.7,1c-0.5,0.1-1.1,0.3-1.7,0.4c-0.6,0.1-1.2,0.3-1.7,0.5h1.8
				c0.5,0,0.9,0.1,1.1,0.2c0.2,0.1,0.4,0.4,0.7,0.8l3.1,5.3c0.2,0.4,0.5,0.8,0.8,1.3c0.3,0.5,0.6,1,1,1.4c0.3,0.5,0.6,0.8,0.8,1h-3
				c-0.5,0-0.9-0.1-1.1-0.3c-0.2-0.2-0.5-0.5-0.7-0.9l-4.3-7.2c-0.3-0.6-0.8-0.9-1.3-0.9c-0.5,0-1,0.3-1.5,0.7
				c-0.2,0.2-0.3,0.4-0.5,0.6c-0.2,0.2-0.3,0.5-0.4,0.7c0-0.7,0.3-1.2,0.9-1.7c0.5-0.5,1.2-0.9,1.9-1.2c0.8-0.4,1.5-0.7,2.3-1
				c0.7-0.3,1.4-0.6,2-1c0.6-0.4,1.1-0.9,1.4-1.5c0.3-0.6,0.5-1.4,0.5-2.5c0-1.4-0.3-2.4-0.8-3.1c-0.6-0.7-1.3-1.2-2.3-1.5
				c-1-0.3-2-0.4-3.3-0.4h-4.7c0,3,0,6,0,9C-148.5-52.4-148.5-49.5-148.5-46.5z"/>
		</g>
	</g>
</g>
<g>
	<g transform="translate(292.490737, 71.7541)">
		<g>
			<path class="st1" d="M-161.2-64.8c0.8,0,1.7,0.1,2.7,0.2c1.1,0.1,2.1,0.2,3.2,0.3c1.1,0.1,2.1,0.1,3.1,0.1c1,0,1.7-0.2,2.2-0.5
				l-0.7,2.1c-0.2,0.7-0.5,1.1-0.8,1.4c-0.3,0.2-0.9,0.3-1.7,0.4c-0.7,0-1.5,0-2.4-0.2c-0.9-0.1-1.9-0.2-2.9-0.4c-1-0.1-2-0.3-3-0.4
				c-1-0.1-1.9-0.2-2.8-0.3c-1.8-0.2-3.2,0-4,0.6c-0.9,0.6-1.4,1.3-1.6,2.3c-0.3,1.2-0.3,2.4-0.2,3.7c0.2,1.3,0.5,2.5,1,3.6
				c0.5,1.2,1.3,2.2,2.2,3.1c0.9,0.9,2,1.6,3.2,2.2c1.2,0.5,2.4,0.9,3.7,1c1.3,0.1,2.6,0,3.9-0.3c1.3-0.4,2.5-1,3.5-1.9
				c1-0.9,1.8-2,2.3-3.3h0.5c-0.6,1.6-1.4,3-2.5,4.3c-1.1,1.2-2.3,2.2-3.8,2.9c-1.5,0.7-3.2,1-5,1c-1.6,0-3-0.3-4.4-0.8
				c-1.4-0.6-2.6-1.3-3.6-2.3c-1-1-1.8-2.2-2.4-3.5c-0.6-1.3-0.9-2.7-0.9-4.2c0-1.7,0.4-3.2,1.1-4.6c0.7-1.4,1.7-2.7,2.9-3.7
				c1-0.8,2.1-1.4,3.4-1.9C-163.9-64.6-162.6-64.8-161.2-64.8z"/>
		</g>
	</g>
</g>
<g>
	<g transform="translate(341.15357, 71.7541)">
		<g>
			<path class="st1" d="M-185.6-64.8c1.5,0,3,0.3,4.4,0.8c1.4,0.6,2.6,1.3,3.6,2.3c1,1,1.9,2.2,2.4,3.5c0.6,1.3,0.9,2.7,0.9,4.2
				c0,1.5-0.3,2.9-0.9,4.2c-0.6,1.3-1.4,2.5-2.4,3.5c-1,1-2.3,1.8-3.6,2.3c-1.4,0.6-2.8,0.8-4.4,0.8c-1.6,0-3-0.3-4.4-0.8
				c-1.4-0.6-2.6-1.3-3.6-2.3c-1-1-1.9-2.2-2.4-3.5c-0.6-1.3-0.9-2.7-0.9-4.2c0-1.5,0.3-2.9,0.9-4.2c0.6-1.3,1.4-2.5,2.4-3.5
				c1-1,2.2-1.8,3.6-2.3C-188.6-64.5-187.2-64.8-185.6-64.8z M-179.3-45.4c0.9-0.6,1.6-1.4,2-2.4c0.5-1,0.7-2.1,0.7-3.3
				c0-1.2-0.2-2.4-0.6-3.7c-0.4-1.3-1.1-2.5-1.9-3.7c-0.9-1.2-1.8-2.2-3-3c-1.1-0.8-2.2-1.4-3.4-1.8c-1.2-0.4-2.3-0.5-3.4-0.4
				c-1.1,0.1-2.1,0.4-3,1.1c-0.9,0.6-1.6,1.4-2,2.4c-0.5,1-0.7,2.1-0.7,3.2c0,1.2,0.2,2.4,0.6,3.7c0.4,1.3,1.1,2.5,1.9,3.7
				c0.9,1.2,1.9,2.2,3,3c1.1,0.8,2.2,1.4,3.4,1.8c1.2,0.4,2.3,0.5,3.4,0.4C-181.3-44.4-180.2-44.8-179.3-45.4z"/>
		</g>
	</g>
</g>
<g>
	<g transform="translate(389.751687, 71.7541)">
		<g>
			<path class="st1" d="M-207.9-64.8l8.1,18.7c0.3,0.7,0.7,1.4,1,2c0.3,0.6,0.5,1,0.6,1.1h-3.9l-7.7-17.8c-0.2-0.5-0.5-1-0.8-1.7
				c-0.3-0.7-0.6-1.3-0.9-1.7c-0.2,1-0.6,2.1-1.2,3.3c-0.6,1.2-1.3,2.3-2,3.5c-0.8,1.2-1.5,2.4-2.2,3.5c-0.7,1.1-1.3,2.2-1.7,3.2
				c-0.6,1.3-0.9,2.4-0.8,3.2c0,0.8,0.3,1.3,0.8,1.6c0.5,0.2,1.1,0.2,1.9-0.2c0.5-0.2,1-0.6,1.5-1c0.5-0.4,1.1-0.9,1.7-1.5
				c0.6-0.5,1.1-1.1,1.6-1.6c0.5-0.5,0.9-1,1.3-1.4c0.4-0.4,0.9-0.7,1.4-0.9c0.5-0.2,1-0.2,1.6,0c0.2,0.1,0.5,0.2,0.7,0.5
				c0.3,0.2,0.5,0.5,0.8,0.7c0.3,0.3,0.5,0.5,0.6,0.6c-0.5-0.1-1,0-1.6,0.3c-0.6,0.3-1.1,0.6-1.7,1.1c-0.6,0.5-1.2,1.1-1.9,1.8
				c-0.6,0.7-1.3,1.4-2,2.1c-0.7,0.7-1.4,1.3-2.2,1.7c-0.8,0.5-1.5,0.7-2.3,0.7c-1.7,0-2.8-0.7-3.4-2c-0.3-0.7-0.4-1.5-0.3-2.3
				c0.1-0.8,0.4-1.7,0.7-2.5c0.4-0.9,0.8-1.7,1.3-2.5c0.5-0.8,1-1.6,1.6-2.3c0.5-0.7,1-1.4,1.4-2c0.3-0.4,0.7-1,1.1-1.7
				c0.4-0.7,0.9-1.5,1.3-2.3c0.5-0.8,0.8-1.6,1.1-2.3c0.3-0.7,0.5-1.3,0.5-1.8H-207.9z"/>
		</g>
	</g>
</g>
<g>
	<g transform="translate(439.708747, 71.7541)">
		<g>
			<path class="st1" d="M-235-64.8c0.8,0,1.7,0.1,2.7,0.2c1.1,0.1,2.1,0.2,3.2,0.3c1.1,0.1,2.1,0.1,3.1,0.1c1,0,1.7-0.2,2.2-0.5
				l-0.7,2.1c-0.2,0.7-0.5,1.1-0.8,1.4c-0.3,0.2-0.9,0.3-1.7,0.4c-0.7,0-1.5,0-2.4-0.2c-0.9-0.1-1.9-0.2-2.9-0.4c-1-0.1-2-0.3-3-0.4
				c-1-0.1-1.9-0.2-2.8-0.3c-1.8-0.2-3.2,0-4,0.6c-0.9,0.6-1.4,1.3-1.6,2.3c-0.3,1.2-0.3,2.4-0.2,3.7c0.2,1.3,0.5,2.5,1,3.6
				c0.5,1.2,1.3,2.2,2.2,3.1c0.9,0.9,2,1.6,3.2,2.2c1.2,0.5,2.4,0.9,3.7,1c1.3,0.1,2.6,0,3.9-0.3c1.3-0.4,2.5-1,3.5-1.9
				c1-0.9,1.8-2,2.3-3.3h0.5c-0.6,1.6-1.4,3-2.5,4.3c-1.1,1.2-2.3,2.2-3.8,2.9c-1.5,0.7-3.2,1-5,1c-1.6,0-3-0.3-4.4-0.8
				c-1.4-0.6-2.6-1.3-3.6-2.3c-1-1-1.8-2.2-2.4-3.5c-0.6-1.3-0.9-2.7-0.9-4.2c0-1.7,0.4-3.2,1.1-4.6c0.7-1.4,1.7-2.7,2.9-3.7
				c1-0.8,2.1-1.4,3.4-1.9C-237.7-64.6-236.4-64.8-235-64.8z"/>
		</g>
	</g>
</g>
<g>
	<g transform="translate(488.371557, 71.7541)">
		<g>
			<path class="st1" d="M-266.8-64.8c0,0-0.1,0.3-0.2,1c-0.1,0.7-0.2,1.5-0.2,2.4v7.2c0.2,0,0.4-0.1,0.6-0.1c0.2,0,0.6,0,1.1,0
				c0.6,0,1.2,0,2.1,0c0.8,0,1.7,0.1,2.6,0.1c0.9,0,1.8,0.1,2.6,0.1c0.9,0,1.6,0,2.2,0v-7.4c0-0.9-0.1-1.7-0.2-2.4
				c-0.1-0.7-0.2-1-0.2-1h3.9c0,0-0.1,0.3-0.1,1c-0.1,0.7-0.1,1.5-0.1,2.4v14.9c0,0.9,0,1.7,0.1,2.4c0.1,0.7,0.1,1,0.1,1h-3.9
				c0,0,0.1-0.3,0.2-1c0.1-0.7,0.2-1.5,0.2-2.4v-7.2c-0.2,0-0.4,0-0.6,0.1c-0.2,0-0.6,0-1,0c-0.6,0-1.3,0-2.1,0
				c-0.8,0-1.7-0.1-2.6-0.1c-0.9,0-1.8-0.1-2.6-0.1c-0.8,0-1.6,0-2.2,0v7.4c0,0.9,0.1,1.7,0.2,2.4c0.1,0.7,0.2,1,0.2,1h-3.9
				c0,0,0.1-0.3,0.2-1c0.1-0.7,0.2-1.5,0.2-2.4v-14.9c0-0.9-0.1-1.7-0.2-2.4c-0.1-0.7-0.2-1-0.2-1H-266.8z"/>
		</g>
	</g>
</g>
<g>
	<g transform="translate(195.493903, 102.083393)">
		<g>
			<path class="st1" d="M-122.5-58.8h-0.8v-5.8h0.8V-58.8z"/>
		</g>
	</g>
</g>
<g>
	<g transform="translate(199.627616, 102.083393)">
		<g>
			<path class="st1" d="M-119.1-58.8h-0.8l-0.3-4.5l-1.9,4.5h-0.5l-1.9-4.5l-0.3,4.5h-0.8l0.4-5.8h0.8l2,4.8l2-4.8h0.8L-119.1-58.8z
				"/>
		</g>
	</g>
</g>
<g>
	<g transform="translate(214.184389, 102.083393)">
		<g>
			<path class="st1" d="M-127.6-58.8h-0.9l-0.8-1.9h-2.4l-0.8,1.9h-0.9l2.5-5.9h0.7L-127.6-58.8z M-129.6-61.4l-0.9-2.4l-0.9,2.4
				H-129.6z"/>
		</g>
	</g>
</g>
<g>
	<g transform="translate(225.621854, 102.083393)">
		<g>
			<path class="st1" d="M-133.8-58.9l-0.4-0.1c-0.5,0.2-1.1,0.3-1.8,0.3c-0.8,0-1.4-0.3-1.9-0.8c-0.5-0.5-0.7-1.3-0.7-2.2
				c0-0.9,0.2-1.6,0.7-2.1c0.5-0.6,1.3-0.9,2.2-0.9c0.7,0,1.4,0.1,2,0.4l-0.2,0.6c-0.5-0.2-1.1-0.3-1.7-0.3c-0.8,0-1.3,0.3-1.7,0.8
				c-0.3,0.4-0.4,0.9-0.4,1.5c0,0.6,0.1,1.1,0.4,1.5c0.4,0.5,0.9,0.8,1.6,0.8c0.5,0,0.9-0.1,1.3-0.2v-1.6h-1.5v-0.6h2.3V-58.9z"/>
		</g>
	</g>
</g>
<g>
	<g transform="translate(237.135401, 102.083393)">
		<g>
			<path class="st1" d="M-139.4-61.7c0-0.7-0.2-1.2-0.6-1.7c-0.4-0.5-0.9-0.7-1.6-0.7c-0.7,0-1.2,0.2-1.6,0.7
				c-0.4,0.5-0.6,1-0.6,1.7c0,0.7,0.2,1.2,0.6,1.7c0.4,0.5,0.9,0.7,1.6,0.7c0.6,0,1.2-0.2,1.6-0.7C-139.6-60.5-139.4-61-139.4-61.7z
				 M-138.6-61.7c0,0.9-0.3,1.6-0.8,2.1c-0.5,0.6-1.3,0.9-2.1,0.9c-0.9,0-1.6-0.3-2.1-0.9c-0.5-0.6-0.8-1.3-0.8-2.1
				c0-0.9,0.3-1.6,0.8-2.1c0.5-0.6,1.3-0.9,2.1-0.9c0.9,0,1.6,0.3,2.1,0.9C-138.9-63.3-138.6-62.5-138.6-61.7z"/>
		</g>
	</g>
</g>
<g>
	<g transform="translate(250.272002, 102.083393)">
		<g>
			<path class="st1" d="M-146.2-59.1c-0.6,0.3-1.3,0.4-2.2,0.4c-0.8,0-1.4-0.3-1.9-0.8c-0.5-0.5-0.7-1.3-0.7-2.2
				c0-0.9,0.2-1.6,0.7-2.1c0.5-0.6,1.3-0.9,2.2-0.9c0.7,0,1.4,0.1,2,0.4l-0.2,0.6c-0.5-0.2-1.1-0.3-1.7-0.3c-0.8,0-1.3,0.3-1.7,0.8
				c-0.3,0.4-0.4,0.9-0.4,1.5c0,0.6,0.1,1.1,0.4,1.5c0.4,0.5,0.9,0.8,1.6,0.8c0.7,0,1.3-0.1,1.8-0.4L-146.2-59.1z"/>
		</g>
	</g>
</g>
<g>
	<g transform="translate(261.22762, 102.083393)">
		<g>
			<path class="st1" d="M-151.4-61.7c0-0.7-0.2-1.2-0.6-1.7c-0.4-0.5-0.9-0.7-1.6-0.7c-0.7,0-1.2,0.2-1.6,0.7
				c-0.4,0.5-0.6,1-0.6,1.7c0,0.7,0.2,1.2,0.6,1.7c0.4,0.5,0.9,0.7,1.6,0.7c0.6,0,1.2-0.2,1.6-0.7C-151.6-60.5-151.4-61-151.4-61.7z
				 M-150.7-61.7c0,0.9-0.3,1.6-0.8,2.1c-0.5,0.6-1.3,0.9-2.1,0.9c-0.9,0-1.6-0.3-2.1-0.9c-0.5-0.6-0.8-1.3-0.8-2.1
				c0-0.9,0.3-1.6,0.8-2.1c0.5-0.6,1.3-0.9,2.1-0.9c0.9,0,1.6,0.3,2.1,0.9C-150.9-63.3-150.7-62.5-150.7-61.7z"/>
		</g>
	</g>
</g>
<g>
	<g transform="translate(274.364222, 102.083393)">
		<g>
			<path class="st1" d="M-157.7-58.8h-0.9l-0.8-1.9h-2.4l-0.8,1.9h-0.9l2.5-5.9h0.7L-157.7-58.8z M-159.7-61.4l-0.9-2.4l-0.9,2.4
				H-159.7z"/>
		</g>
	</g>
</g>
<g>
	<g transform="translate(285.801687, 102.083393)">
		<g>
			<path class="st1" d="M-164-59.1c-0.6,0.3-1.3,0.4-2.2,0.4c-0.8,0-1.4-0.3-1.9-0.8c-0.5-0.5-0.7-1.3-0.7-2.2
				c0-0.9,0.2-1.6,0.7-2.1c0.5-0.6,1.3-0.9,2.2-0.9c0.7,0,1.4,0.1,2,0.4l-0.2,0.6c-0.5-0.2-1.1-0.3-1.7-0.3c-0.8,0-1.3,0.3-1.7,0.8
				c-0.3,0.4-0.4,0.9-0.4,1.5c0,0.6,0.1,1.1,0.4,1.5c0.4,0.5,0.9,0.8,1.6,0.8c0.7,0,1.3-0.1,1.8-0.4L-164-59.1z"/>
		</g>
	</g>
</g>
<g>
	<g transform="translate(296.757305, 102.083393)">
		<g>
			<path class="st1" d="M-169.3-58.8h-0.8v-2.8h-3.1v2.8h-0.8v-5.8h0.8v2.4h3.1v-2.4h0.8V-58.8z"/>
		</g>
	</g>
</g>
<g>
	<g transform="translate(308.727339, 102.083393)">
		<g>
			<path class="st1" d="M-179-59.3c0,0.8-0.4,1.4-1.1,1.8l-0.3-0.4c0.4-0.3,0.7-0.5,0.8-0.9c-0.4,0-0.6-0.2-0.6-0.6
				c0-0.2,0.1-0.3,0.2-0.4c0.1-0.1,0.3-0.2,0.4-0.2c0.2,0,0.3,0.1,0.4,0.2C-179-59.6-179-59.5-179-59.3z"/>
		</g>
	</g>
</g>
<g>
	<g transform="translate(318.820702, 102.083393)">
		<g>
			<path class="st1" d="M-180.5-59l-0.8,0.3l-2.6-2.9l-0.5,0.5v2.3h-0.8v-5.8h0.8v2.6l2.9-2.7l0.8,0.2l-2.6,2.4L-180.5-59z"/>
		</g>
	</g>
</g>
<g>
	<g transform="translate(329.243763, 102.083393)">
		<g>
			<path class="st1" d="M-186.6-58.8h-3.7v-5.8h0.8v5.1h3V-58.8z"/>
		</g>
	</g>
</g>
<g>
	<g transform="translate(338.348082, 102.083393)">
		<g>
			<path class="st1" d="M-191.3-58.8h-3.6v-5.8h3.6v0.7h-2.8v1.8h2.5v0.7h-2.5v2.1h2.8V-58.8z"/>
		</g>
	</g>
</g>
<g>
	<g transform="translate(347.42704, 102.083393)">
		<g>
			<path class="st1" d="M-194.6-61.3c0,1.7-0.8,2.6-2.4,2.6c-1.6,0-2.4-0.9-2.4-2.6v-3.3h0.8v3.3c0,1.3,0.5,1.9,1.6,1.9
				c1.1,0,1.6-0.6,1.6-1.9v-3.3h0.8V-61.3z"/>
		</g>
	</g>
</g>
<g>
	<g transform="translate(359.650667, 102.083393)">
		<g>
			<path class="st1" d="M-201.4-58.8h-0.8c-0.2-1.7-0.7-2.5-1.6-2.5h-1v2.5h-0.8v-5.7c0.6-0.1,1.2-0.2,1.6-0.2
				c0.7,0,1.3,0.1,1.7,0.4c0.4,0.3,0.6,0.7,0.6,1.2c0,0.7-0.3,1.1-1,1.4c0.3,0.2,0.6,0.5,0.7,0.9C-201.7-60.3-201.5-59.7-201.4-58.8
				z M-202.4-63c0-0.7-0.5-1-1.6-1c-0.3,0-0.6,0-0.8,0v2h1C-202.8-62-202.4-62.3-202.4-63z"/>
		</g>
	</g>
</g>
<g>
	<g transform="translate(369.667961, 102.083393)">
		<g>
			<path class="st1" d="M-208.5-60.7h-2.5v-0.7h2.5V-60.7z"/>
		</g>
	</g>
</g>
<g>
	<g transform="translate(381.130775, 102.083393)">
		<g>
			<path class="st1" d="M-212.8-58.8h-3.6v-5.8h3.6v0.7h-2.8v1.8h2.5v0.7h-2.5v2.1h2.8V-58.8z"/>
		</g>
	</g>
</g>
<g>
	<g transform="translate(390.209722, 102.083393)">
		<g>
			<path class="st1" d="M-216.2-58.8h-0.8l-3.2-4.7v4.7h-0.8v-5.8h0.8l3.1,4.6v-4.6h0.8V-58.8z"/>
		</g>
	</g>
</g>
<g>
	<g transform="translate(407.911152, 102.083393)">
		<g>
			<path class="st1" d="M-226.1-60.4c0,0.5-0.2,0.9-0.6,1.2c-0.4,0.3-0.9,0.5-1.6,0.5c-0.7,0-1.3-0.2-1.9-0.5l0.3-0.7
				c0.5,0.4,1,0.5,1.6,0.5c0.4,0,0.7-0.1,1-0.3c0.2-0.2,0.4-0.4,0.4-0.7c0-0.5-0.4-0.9-1.2-1.1c-1.2-0.4-1.8-0.9-1.8-1.7
				c0-0.5,0.2-0.8,0.6-1.1c0.4-0.3,0.9-0.4,1.5-0.4c0.6,0,1.1,0.1,1.6,0.4l-0.3,0.6c-0.4-0.2-0.8-0.3-1.2-0.3
				c-0.4,0-0.7,0.1-0.9,0.2c-0.2,0.2-0.3,0.4-0.3,0.6c0,0.4,0.4,0.8,1.2,1.1c0.7,0.2,1.1,0.4,1.4,0.7
				C-226.2-61.2-226.1-60.8-226.1-60.4z"/>
		</g>
	</g>
</g>
<g>
	<g transform="translate(417.167633, 102.083393)">
		<g>
			<path class="st1" d="M-232-58.8h-0.8v-5.1h-2.2v-0.7h5.2v0.7h-2.2V-58.8z"/>
		</g>
	</g>
</g>
<g>
	<g transform="translate(427.844298, 102.083393)">
		<g>
			<path class="st1" d="M-239-58.8h-0.8v-5.8h0.8V-58.8z"/>
		</g>
	</g>
</g>
<g>
	<g transform="translate(431.978022, 102.083393)">
		<g>
			<path class="st1" d="M-239.5-60.8c0,1.4-0.6,2.1-1.9,2.1c-0.3,0-0.7-0.1-1.1-0.2l0.2-0.6c0.2,0.1,0.5,0.2,0.9,0.2
				c0.4,0,0.7-0.1,0.9-0.3c0.2-0.2,0.3-0.6,0.3-1.2v-3.7h0.8V-60.8z"/>
		</g>
	</g>
</g>
<g>
	<g transform="translate(439.129612, 102.083393)">
		<g>
			<path class="st1" d="M-241.7-58.8h-3.7v-5.8h0.8v5.1h3V-58.8z"/>
		</g>
	</g>
</g>
<g>
	<g transform="translate(448.233931, 102.083393)">
		<g>
			<path class="st1" d="M-245.4-59.1c-0.6,0.3-1.3,0.4-2.2,0.4c-0.8,0-1.4-0.3-1.9-0.8c-0.5-0.5-0.7-1.3-0.7-2.2
				c0-0.9,0.2-1.6,0.7-2.1c0.5-0.6,1.3-0.9,2.2-0.9c0.7,0,1.4,0.1,2,0.4l-0.2,0.6c-0.5-0.2-1.1-0.3-1.7-0.3c-0.8,0-1.3,0.3-1.7,0.8
				c-0.3,0.4-0.4,0.9-0.4,1.5c0,0.6,0.1,1.1,0.4,1.5c0.4,0.5,0.9,0.8,1.6,0.8c0.7,0,1.3-0.1,1.8-0.4L-245.4-59.1z"/>
		</g>
	</g>
</g>
<g>
	<g transform="translate(459.189537, 102.083393)">
		<g>
			<path class="st1" d="M-250.6-61.7c0-0.7-0.2-1.2-0.6-1.7c-0.4-0.5-0.9-0.7-1.6-0.7c-0.7,0-1.2,0.2-1.6,0.7
				c-0.4,0.5-0.6,1-0.6,1.7c0,0.7,0.2,1.2,0.6,1.7c0.4,0.5,0.9,0.7,1.6,0.7c0.6,0,1.2-0.2,1.6-0.7C-250.8-60.5-250.6-61-250.6-61.7z
				 M-249.9-61.7c0,0.9-0.3,1.6-0.8,2.1c-0.5,0.6-1.3,0.9-2.1,0.9c-0.9,0-1.6-0.3-2.1-0.9c-0.5-0.6-0.8-1.3-0.8-2.1
				c0-0.9,0.3-1.6,0.8-2.1c0.5-0.6,1.3-0.9,2.1-0.9c0.9,0,1.6,0.3,2.1,0.9C-250.1-63.3-249.9-62.5-249.9-61.7z"/>
		</g>
	</g>
</g>
<g>
	<g transform="translate(472.326139, 102.083393)">
		<g>
			<path class="st1" d="M-257.3-58.8h-0.8l-3.2-4.7v4.7h-0.8v-5.8h0.8l3.1,4.6v-4.6h0.8V-58.8z"/>
		</g>
	</g>
</g>
<g>
	<g transform="translate(484.296162, 102.083393)">
		<g>
			<path class="st1" d="M-264.4-60.4c0,0.5-0.2,0.9-0.6,1.2c-0.4,0.3-0.9,0.5-1.6,0.5c-0.7,0-1.3-0.2-1.9-0.5l0.3-0.7
				c0.5,0.4,1,0.5,1.6,0.5c0.4,0,0.7-0.1,1-0.3c0.2-0.2,0.4-0.4,0.4-0.7c0-0.5-0.4-0.9-1.2-1.1c-1.2-0.4-1.8-0.9-1.8-1.7
				c0-0.5,0.2-0.8,0.6-1.1c0.4-0.3,0.9-0.4,1.5-0.4c0.6,0,1.1,0.1,1.6,0.4l-0.3,0.6c-0.4-0.2-0.8-0.3-1.2-0.3
				c-0.4,0-0.7,0.1-0.9,0.2c-0.2,0.2-0.3,0.4-0.3,0.6c0,0.4,0.4,0.8,1.2,1.1c0.7,0.2,1.1,0.4,1.4,0.7
				C-264.5-61.2-264.4-60.8-264.4-60.4z"/>
		</g>
	</g>
</g>
<g>
	<g transform="translate(493.552643, 102.083393)">
		<g>
			<path class="st1" d="M-267.8-61.3c0,1.7-0.8,2.6-2.4,2.6c-1.6,0-2.4-0.9-2.4-2.6v-3.3h0.8v3.3c0,1.3,0.5,1.9,1.6,1.9
				c1.1,0,1.6-0.6,1.6-1.9v-3.3h0.8V-61.3z"/>
		</g>
	</g>
</g>
<g>
	<g transform="translate(505.77627, 102.083393)">
		<g>
			<path class="st1" d="M-275-58.8h-3.7v-5.8h0.8v5.1h3V-58.8z"/>
		</g>
	</g>
</g>
<g>
	<g transform="translate(514.880589, 102.083393)">
		<g>
			<path class="st1" d="M-279.8-58.8h-3.6v-5.8h3.6v0.7h-2.8v1.8h2.5v0.7h-2.5v2.1h2.8V-58.8z"/>
		</g>
	</g>
</g>
<g>
	<g transform="translate(523.959547, 102.083393)">
		<g>
			<path class="st1" d="M-283.2-58.8h-0.8l-3.2-4.7v4.7h-0.8v-5.8h0.8l3.1,4.6v-4.6h0.8V-58.8z"/>
		</g>
	</g>
</g>
<g>
	<g transform="translate(535.929593, 102.083393)">
		<g>
			<path class="st1" d="M-291.5-58.8h-0.8v-5.1h-2.2v-0.7h5.2v0.7h-2.2V-58.8z"/>
		</g>
	</g>
</g>
</svg>
