<?xml version="1.0" encoding="utf-8"?>
<!-- Generator: Adobe Illustrator 26.3.1, SVG Export Plug-In . SVG Version: 6.00 Build 0)  -->
<svg version="1.1" id="Laag_1" xmlns="http://www.w3.org/2000/svg" xmlns:xlink="http://www.w3.org/1999/xlink" x="0px" y="0px"
	 viewBox="0 0 177 35.9" style="enable-background:new 0 0 177 35.9;" xml:space="preserve">
<style type="text/css">
	.st0{fill:#947798;}
	.st1{fill:none;stroke:#947798;stroke-miterlimit:10;}
	.st2{fill:#EF8198;}
	.st3{fill:#72B95A;}
	.st4{fill:#2D85C7;}
	.st5{fill:#FFD405;}
	.st6{fill:#0565A4;}
	.st7{fill:#F38F1C;}
	.st8{fill:#E94C4E;}
	.st9{fill:#025284;}
	.st10{fill:#1AA95F;}
	.st11{fill:#F59D1C;}
	.st12{fill:#E94F1E;}
	.st13{fill:#E50D49;}
</style>
<g id="design2_vector">
	<g id="design-and-ux_color-wheel-2">
		<g>
			<path class="st0" d="M63.5,12.2c-0.1,0.2-0.3,0.4-0.5,0.5c-0.2,0.2-0.4,0.3-0.6,0.5s-0.6,0.3-0.9,0.4c0.1-0.1,0.1-0.3,0-0.4
				s-0.3-0.3-0.6-0.4s-0.7-0.2-1.2-0.3s-1.2-0.1-1.9-0.1c-0.4,0-0.9,0-1.4,0.1s-1,0.2-1.5,0.5s-1,0.5-1.4,0.9s-0.9,0.8-1.2,1.4
				s-0.6,1.2-0.8,1.9s-0.3,1.6-0.3,2.6s0.1,1.8,0.4,2.6s0.5,1.4,1,1.9s0.8,1,1.3,1.3s1,0.6,1.6,0.9s1,0.4,1.6,0.4s1,0.1,1.4,0.1
				c0.5,0,1,0,1.5-0.1s0.9-0.1,1.5-0.2c0.5-0.1,1.1-0.3,1.6-0.5c-0.8,0.6-1.5,1.1-2.1,1.4s-1.2,0.6-1.7,0.7
				c-0.6,0.2-1.1,0.3-1.6,0.3c-1.2,0-2.2-0.2-3.3-0.5s-1.9-0.8-2.7-1.5s-1.4-1.4-1.8-2.4s-0.7-2-0.7-3.2c0-0.7,0.1-1.4,0.2-2.1
				s0.3-1.2,0.6-1.8s0.5-1,0.8-1.4c0.3-0.4,0.6-0.8,0.9-1.1s0.6-0.6,0.9-0.8s0.5-0.4,0.7-0.5s0.5-0.2,0.8-0.4s0.7-0.3,1-0.4
				s0.8-0.3,1.2-0.4s0.8-0.3,1.3-0.4s0.9-0.2,1.3-0.3s0.8-0.1,1.2-0.1c0.8,0,1.5,0,2,0.1s0.9,0.2,1.2,0.3s0.4,0.2,0.5,0.3
				S63.5,12.1,63.5,12.2L63.5,12.2z"/>
			<path class="st0" d="M72.7,19.3c0,0.6,0,1.2-0.1,1.8s-0.1,1.1-0.2,1.6s-0.3,1-0.4,1.4s-0.4,0.8-0.6,1c-0.1,0.2-0.3,0.4-0.6,0.6
				s-0.5,0.5-0.8,0.7s-0.6,0.5-0.9,0.8s-0.7,0.5-1,0.7s-0.6,0.3-0.9,0.5s-0.6,0.2-0.8,0.2c-0.3,0-0.5-0.1-0.7-0.2s-0.4-0.3-0.5-0.5
				s-0.3-0.5-0.3-0.8s-0.2-0.6-0.2-0.8s-0.2-0.6-0.2-0.8s0-0.5,0-0.7c0-0.7,0.1-1.4,0.2-2s0.3-1.3,0.6-1.9s0.6-1.2,1-1.7
				s0.9-1,1.4-1.3c0.4-0.2,0.7-0.5,1-0.7s0.6-0.4,0.8-0.5s0.5-0.2,0.7-0.3s0.3-0.2,0.4-0.2s0.4,0.1,0.6,0.1s0.4,0.3,0.7,0.5
				s0.4,0.5,0.6,0.9S72.7,18.7,72.7,19.3L72.7,19.3z M70.9,21.2c0-0.3,0-0.7-0.1-1.1s-0.1-0.8-0.3-1.2s-0.3-0.7-0.6-0.9
				s-0.6-0.4-1-0.4c-0.2,0-0.3,0-0.5,0.1s-0.3,0.2-0.5,0.3c-0.3,0.3-0.6,0.7-0.8,1.1s-0.3,0.8-0.4,1.3s-0.2,0.9-0.2,1.4
				s-0.1,0.9-0.1,1.3c0,0.2,0,0.5,0,0.7s0,0.6,0.1,0.9s0.1,0.6,0.2,0.9s0.2,0.5,0.3,0.8s0.3,0.4,0.5,0.5s0.4,0.2,0.7,0.2
				c0.4,0,0.7-0.1,1-0.3s0.5-0.5,0.7-0.8s0.4-0.7,0.5-1.2s0.2-0.9,0.3-1.3s0.1-0.8,0.2-1.2S70.9,21.5,70.9,21.2L70.9,21.2z"/>
			<path class="st0" d="M80.5,25.2c-0.2,0.2-0.3,0.4-0.5,0.7s-0.4,0.5-0.6,0.8s-0.4,0.5-0.7,0.7s-0.5,0.4-0.8,0.6
				c-0.3,0.2-0.5,0.3-0.8,0.4s-0.6,0.1-0.8,0.1c-0.2,0-0.4-0.1-0.6-0.3s-0.3-0.4-0.3-0.7s-0.1-0.7-0.2-1s0-0.8,0-1.2
				c0-0.2,0-0.6,0.1-1.1s0.1-1.2,0.1-1.9s0.1-1.5,0.1-2.4s0.1-1.8,0.2-2.7s0.1-1.8,0.1-2.6s0.1-1.7,0.1-2.3c0-0.7,0.1-1.3,0.1-1.8
				s0-0.8,0-1c0-0.4,0-0.8-0.1-1s-0.2-0.3-0.5-0.3s-0.6,0.1-1.1,0.3c0.3-0.3,0.6-0.5,0.9-0.8s0.5-0.4,0.6-0.5
				C76,7,76.2,6.9,76.3,6.8c0.2-0.2,0.5-0.3,0.8-0.3c0.2,0,0.4,0.1,0.6,0.3s0.2,0.5,0.2,0.8c0,0.2,0,0.5-0.1,1s-0.1,1.1-0.1,1.8
				s-0.1,1.5-0.1,2.4s-0.1,1.8-0.1,2.7c0,0.9-0.1,1.9-0.1,2.8s-0.1,1.8-0.1,2.6s-0.1,1.5-0.1,2.1s0,1.1,0,1.4c0,0.4,0,0.8,0.1,1.1
				s0.1,0.6,0.2,0.8s0.2,0.3,0.3,0.4s0.3,0.1,0.4,0.1c0.2,0,0.4-0.1,0.5-0.2s0.3-0.2,0.5-0.4s0.3-0.4,0.5-0.6s0.3-0.4,0.4-0.7
				s0.2-0.4,0.3-0.6s0.2-0.4,0.2-0.5L80.5,25.2L80.5,25.2z"/>
			<path class="st0" d="M89.2,19.3c0,0.6,0,1.2-0.1,1.8s-0.2,1.1-0.3,1.7s-0.3,1-0.4,1.4s-0.4,0.8-0.6,1c-0.1,0.2-0.3,0.4-0.6,0.6
				s-0.5,0.5-0.8,0.7s-0.6,0.5-0.9,0.8s-0.7,0.5-1,0.7c-0.3,0.2-0.6,0.3-0.9,0.5s-0.6,0.2-0.8,0.2c-0.3,0-0.5-0.1-0.7-0.2
				s-0.4-0.3-0.5-0.5s-0.3-0.5-0.3-0.8s-0.2-0.6-0.2-0.8S81,25.9,81,25.6s0-0.5,0-0.7c0-0.7,0.1-1.4,0.2-2s0.3-1.3,0.6-1.9
				s0.6-1.2,1-1.7s0.9-1,1.4-1.3c0.4-0.2,0.7-0.5,1-0.7s0.6-0.4,0.8-0.5s0.5-0.2,0.7-0.3s0.4-0.1,0.6-0.1s0.4,0.1,0.6,0.1
				s0.4,0.3,0.7,0.5s0.4,0.5,0.6,0.9S89.2,18.7,89.2,19.3L89.2,19.3z M87.4,21.2c0-0.3,0-0.7-0.1-1.1s-0.1-0.8-0.3-1.2
				s-0.3-0.7-0.6-0.9s-0.6-0.4-1-0.4c-0.2,0-0.3,0-0.5,0.1s-0.3,0.2-0.5,0.3c-0.3,0.3-0.6,0.7-0.8,1.1s-0.3,0.8-0.4,1.3
				S83,21.3,83,21.7s-0.1,0.9-0.1,1.3c0,0.2,0,0.5,0,0.7s0,0.6,0.1,0.9s0.1,0.6,0.2,0.9s0.2,0.5,0.3,0.8s0.3,0.4,0.5,0.5
				s0.4,0.2,0.7,0.2c0.4,0,0.7-0.1,1-0.3s0.5-0.5,0.7-0.8s0.4-0.7,0.5-1.2s0.2-0.9,0.3-1.3s0.1-0.8,0.2-1.2S87.4,21.5,87.4,21.2
				L87.4,21.2z"/>
			<path class="st0" d="M94.4,21.8c0,0.4-0.1,0.9-0.1,1.5c0,0.5-0.1,1-0.1,1.7s-0.1,1.4-0.1,2.2l-2,1.7c0.2-1.6,0.3-3.1,0.4-4.6
				s0.2-2.9,0.2-4.3c0-0.7-0.1-1.2-0.3-1.6s-0.5-0.5-0.8-0.5s-0.7,0.2-1.2,0.5c0.1-0.1,0.2-0.2,0.4-0.4s0.3-0.3,0.5-0.5
				s0.3-0.3,0.5-0.5s0.4-0.3,0.5-0.4s0.3-0.2,0.5-0.3s0.3-0.1,0.4-0.1c0.3,0,0.5,0.1,0.7,0.3s0.3,0.4,0.4,0.6s0.1,0.5,0.1,0.8
				s0,0.5,0,0.7v0.6c0.4-0.7,0.9-1.3,1.5-1.8s1.2-0.9,2-1.1c0.2-0.1,0.3-0.1,0.5,0s0.3,0.1,0.5,0.1s0.3,0.1,0.5,0.1s0.4,0.1,0.6,0.1
				s0.3,0,0.5-0.1s0.4-0.1,0.6-0.2l-0.7,0.7c-0.2,0.2-0.4,0.4-0.7,0.6s-0.4,0.3-0.6,0.4s-0.4,0.2-0.6,0.2s-0.4,0-0.6,0
				s-0.4-0.1-0.6-0.2s-0.4-0.1-0.6-0.1s-0.4,0-0.7,0.1c-0.2,0.1-0.3,0.2-0.5,0.4S95.2,19,95,19.3s-0.3,0.8-0.4,1.2
				S94.5,21.3,94.4,21.8L94.4,21.8L94.4,21.8z"/>
			<path class="st0" d="M107.4,17c-0.1,0.1-0.2,0.2-0.3,0.3c-0.1,0.1-0.3,0.3-0.5,0.4s-0.5,0.4-0.9,0.7c0.1-0.1,0.1-0.2,0.2-0.2
				s0-0.1,0-0.2s-0.1-0.1-0.2-0.2s-0.3-0.1-0.6-0.2s-0.6-0.1-0.9-0.1s-0.5,0-0.8,0.1s-0.4,0.1-0.6,0.2c-0.1,0.1-0.3,0.3-0.4,0.6
				s-0.3,0.7-0.4,1.2s-0.2,1-0.3,1.5s-0.1,1.1-0.1,1.7c0,0.3,0,0.5,0,0.8s0.1,0.6,0.1,0.9s0.2,0.6,0.3,0.9s0.2,0.5,0.4,0.7
				s0.4,0.4,0.6,0.5s0.5,0.2,0.8,0.1c0.2,0,0.4-0.1,0.6-0.2s0.4-0.3,0.7-0.5s0.5-0.6,0.8-1l1-0.3c-0.4,0.5-0.8,0.9-1.1,1.2
				s-0.6,0.6-0.8,0.8c-0.3,0.2-0.5,0.4-0.7,0.6c-0.3,0.2-0.5,0.3-0.7,0.5s-0.4,0.3-0.7,0.4s-0.4,0.2-0.6,0.2s-0.4,0.1-0.6,0
				c-0.2,0-0.4-0.1-0.6-0.3s-0.4-0.5-0.6-0.8s-0.3-0.8-0.5-1.3s-0.2-1.1-0.2-1.7c0-0.7,0.1-1.3,0.2-2s0.3-1.3,0.6-2s0.6-1.2,1-1.8
				s0.9-1,1.4-1.4c0.3-0.2,0.6-0.4,0.9-0.5s0.7-0.3,1-0.4s0.7-0.2,1-0.2s0.6-0.1,0.8-0.1c0.5,0,0.8,0.1,1,0.3S107.6,16.8,107.4,17
				L107.4,17z"/>
			<path class="st0" d="M116.5,19.3c0,0.6,0,1.2-0.1,1.8s-0.2,1.1-0.3,1.7s-0.3,1-0.4,1.4s-0.4,0.8-0.6,1c-0.1,0.2-0.3,0.4-0.6,0.6
				s-0.5,0.5-0.8,0.7s-0.6,0.5-0.9,0.8s-0.7,0.5-1,0.7c-0.3,0.2-0.6,0.3-0.9,0.5s-0.6,0.2-0.8,0.2c-0.3,0-0.5-0.1-0.7-0.2
				s-0.4-0.3-0.5-0.5s-0.3-0.5-0.3-0.8s-0.2-0.6-0.2-0.8s-0.1-0.5-0.1-0.8s0-0.5,0-0.7c0-0.7,0.1-1.4,0.2-2s0.3-1.3,0.6-1.9
				s0.6-1.2,1-1.7s0.9-1,1.4-1.3c0.4-0.2,0.7-0.5,1-0.7s0.6-0.4,0.8-0.5s0.5-0.2,0.7-0.3s0.4-0.1,0.6-0.1s0.4,0.1,0.6,0.1
				s0.4,0.3,0.7,0.5s0.4,0.5,0.6,0.9S116.4,18.7,116.5,19.3L116.5,19.3z M114.6,21.2c0-0.3,0-0.7-0.1-1.1s-0.1-0.8-0.3-1.2
				s-0.3-0.7-0.6-0.9s-0.6-0.4-1-0.4c-0.2,0-0.3,0-0.5,0.1s-0.3,0.2-0.5,0.3c-0.3,0.3-0.6,0.7-0.8,1.1s-0.3,0.8-0.4,1.3
				s-0.2,0.9-0.2,1.3s-0.1,0.9-0.1,1.3c0,0.2,0,0.5,0,0.7s0,0.6,0.1,0.9s0.1,0.6,0.2,0.9s0.2,0.5,0.3,0.8s0.3,0.4,0.5,0.5
				s0.4,0.2,0.7,0.2c0.4,0,0.7-0.1,1-0.3s0.5-0.5,0.7-0.8s0.4-0.7,0.5-1.2s0.2-0.9,0.3-1.3s0.1-0.8,0.2-1.2S114.6,21.5,114.6,21.2
				L114.6,21.2z"/>
			<path class="st0" d="M129.3,25.3c-0.1,0.1-0.2,0.2-0.3,0.4s-0.2,0.3-0.4,0.4c-0.1,0.2-0.3,0.3-0.5,0.5s-0.4,0.5-0.7,0.7
				s-0.5,0.4-0.7,0.6s-0.5,0.3-0.7,0.4s-0.4,0.2-0.6,0.2c-0.3,0-0.6-0.2-0.7-0.6s-0.2-0.9-0.2-1.7c0-0.4,0-0.8,0-1.3s0.1-1,0.1-1.5
				c-0.2,0.3-0.3,0.5-0.5,0.8s-0.3,0.4-0.4,0.6s-0.3,0.4-0.4,0.6c-0.4,0.5-0.8,1-1.2,1.3s-0.7,0.7-1.1,1s-0.6,0.5-0.9,0.6
				s-0.4,0.2-0.6,0.2s-0.3,0-0.5-0.1s-0.4-0.3-0.6-0.6s-0.3-0.8-0.5-1.3s-0.2-1.3-0.2-2.2s0.1-1.7,0.3-2.4s0.4-1.3,0.7-1.8
				s0.6-0.9,1-1.3s0.7-0.7,1.1-1c0.7-0.6,1.4-1,2.1-1.3s1.3-0.5,2-0.5c0.2,0,0.4,0,0.6,0c0.2,0,0.4,0,0.6,0.1s0.4,0.1,0.6,0.2
				L127,16c-0.1,0.2-0.1,0.5-0.1,0.9s-0.1,0.8-0.1,1.3s-0.1,1-0.1,1.5s-0.1,1.1-0.1,1.6s-0.1,1.1-0.1,1.6s-0.1,1-0.1,1.4
				s0,0.8,0,1.1s0,0.5,0,0.6c0,0.4,0.1,0.8,0.3,0.9s0.4,0.2,0.7-0.1c0.1-0.1,0.3-0.2,0.4-0.4c0.1-0.2,0.3-0.4,0.5-0.7
				s0.5-0.7,0.8-1.2L129.3,25.3L129.3,25.3z M125.3,17.8c-0.7-0.1-1.3-0.1-1.8-0.1s-0.9,0.1-1.3,0.2s-0.7,0.4-1,0.7s-0.5,0.6-0.7,1
				s-0.3,0.8-0.4,1.2s-0.2,0.8-0.2,1.2s-0.1,0.8-0.1,1.2c0,0.1,0,0.3,0,0.5s0,0.5,0.1,0.7s0.1,0.5,0.2,0.8s0.2,0.5,0.3,0.7
				s0.2,0.4,0.4,0.5s0.3,0.2,0.5,0.2s0.4-0.1,0.7-0.3s0.7-0.6,1.1-1.1c0.2-0.3,0.5-0.7,0.7-1.2c0.2-0.4,0.4-0.9,0.7-1.4
				s0.4-1.2,0.6-2L125.3,17.8L125.3,17.8z"/>
			<path class="st0" d="M137.7,17c-0.1,0.1-0.2,0.2-0.3,0.3c-0.1,0.1-0.3,0.3-0.5,0.4s-0.5,0.4-0.9,0.7c0.1-0.1,0.1-0.2,0.1-0.2
				s0-0.1,0-0.2s-0.1-0.1-0.1-0.2c-0.1-0.1-0.3-0.1-0.6-0.2s-0.6-0.1-0.9-0.1c-0.3,0-0.5,0-0.8,0.1s-0.4,0.1-0.6,0.2
				c-0.1,0.1-0.3,0.3-0.4,0.6s-0.3,0.7-0.4,1.2s-0.2,1-0.3,1.5s-0.1,1.1-0.1,1.7c0,0.3,0,0.5,0,0.8s0.1,0.6,0.1,0.9s0.1,0.6,0.3,0.9
				s0.2,0.5,0.4,0.7s0.4,0.4,0.6,0.5s0.5,0.2,0.8,0.1c0.2,0,0.4-0.1,0.6-0.2c0.2-0.1,0.4-0.3,0.7-0.5s0.5-0.6,0.8-1l1-0.3
				c-0.4,0.5-0.8,0.9-1.1,1.2s-0.6,0.6-0.8,0.8c-0.3,0.2-0.5,0.4-0.7,0.6c-0.3,0.2-0.5,0.3-0.7,0.5s-0.4,0.3-0.7,0.4
				s-0.4,0.2-0.6,0.2s-0.4,0.1-0.6,0c-0.2,0-0.4-0.1-0.6-0.3s-0.4-0.5-0.6-0.8s-0.3-0.8-0.5-1.3s-0.2-1.1-0.2-1.7
				c0-0.7,0.1-1.3,0.2-2s0.3-1.3,0.6-2s0.6-1.2,1-1.8s0.9-1,1.4-1.4c0.3-0.2,0.6-0.4,0.9-0.5s0.7-0.3,1-0.4s0.6-0.2,1-0.2
				s0.6-0.1,0.8-0.1c0.5,0,0.8,0.1,1,0.3S137.9,16.8,137.7,17L137.7,17z"/>
			<path class="st0" d="M141.7,7.9c0,0.2,0,0.3,0,0.6v0.9c0,1.8,0,3.6-0.1,5.3s-0.2,3.5-0.3,5.2c0.3-0.4,0.6-0.9,1-1.4
				s0.7-0.9,1.1-1.3s0.8-0.7,1.2-0.9s0.9-0.4,1.3-0.4c0.4,0,0.7,0.1,0.9,0.3s0.4,0.4,0.6,0.7s0.2,0.6,0.3,0.9s0.1,0.6,0.1,0.9
				c0,0.6,0,1.2-0.1,1.8s-0.1,1.2-0.1,1.7s-0.1,1.1-0.1,1.7s-0.1,1.1-0.1,1.7c0,0.2,0,0.3,0,0.5s0.1,0.3,0.1,0.4s0.1,0.2,0.2,0.3
				s0.2,0.1,0.4,0.1s0.4-0.1,0.7-0.3s0.4-0.4,0.6-0.6s0.4-0.5,0.5-0.7s0.3-0.4,0.4-0.6l-0.3,1.1c-0.3,0.3-0.6,0.6-0.9,0.8
				s-0.4,0.4-0.5,0.5c-0.2,0.1-0.3,0.2-0.4,0.3c-0.1,0.1-0.2,0.2-0.4,0.3s-0.3,0.3-0.5,0.4s-0.3,0.2-0.5,0.3s-0.4,0.1-0.6,0.1
				c-0.2,0-0.3,0-0.4-0.1s-0.2-0.1-0.2-0.2s-0.1-0.3-0.1-0.5s0-0.4,0-0.7c0-0.7,0-1.4,0.1-2.2s0.1-1.4,0.1-2.1s0.1-1.3,0.1-2
				s0-1.3,0-2c0-0.2-0.1-0.4-0.1-0.5s-0.2-0.3-0.3-0.4s-0.3-0.2-0.5-0.3s-0.4-0.1-0.6-0.1s-0.4,0.1-0.6,0.2s-0.4,0.2-0.6,0.5
				s-0.4,0.5-0.6,0.8s-0.4,0.7-0.6,1.2c-0.1,0.2-0.2,0.4-0.3,0.7c-0.1,0.2-0.2,0.5-0.3,0.8s-0.2,0.6-0.3,1l-0.3,4.7l-1.9,1.5
				c0.1-1.5,0.2-3,0.4-4.4s0.2-2.9,0.3-4.2s0.2-2.8,0.2-4.1s0.1-2.7,0.1-4.1c0-0.5,0-0.9,0-1.3s-0.1-0.8-0.1-1.1s-0.1-0.6-0.1-0.8
				s-0.1-0.3-0.2-0.4c-0.1-0.1-0.2-0.1-0.4-0.1c-0.1,0-0.3,0-0.5,0.1s-0.4,0.2-0.7,0.5c0.2-0.1,0.4-0.3,0.6-0.6s0.5-0.5,0.8-0.7
				s0.5-0.4,0.8-0.6s0.5-0.2,0.7-0.2s0.4,0.1,0.6,0.3S141.6,7.5,141.7,7.9L141.7,7.9z"/>
			<path class="st0" d="M154.6,27c-0.2,0.2-0.5,0.3-0.7,0.5s-0.4,0.3-0.6,0.4s-0.4,0.2-0.5,0.3c-0.1,0.1-0.3,0.1-0.4,0.1
				c-0.1,0-0.2,0-0.3-0.1s-0.3-0.2-0.5-0.3s-0.4-0.3-0.7-0.6l1.8-1.3c0.3,0.2,0.6,0.4,0.8,0.6s0.4,0.2,0.6,0.3
				C154.3,27,154.5,27,154.6,27L154.6,27z"/>
			<path class="st0" d="M158.2,28.7c-0.2,0-0.4,0-0.6,0s-0.4-0.1-0.6-0.1c0.1-1.6,0.2-3.1,0.3-4.6s0.2-2.9,0.3-4.4s0.2-2.8,0.2-4.2
				s0.1-2.8,0.1-4.1c0-0.9-0.1-1.6-0.2-2s-0.3-0.7-0.5-0.8c-0.1,0-0.3,0-0.4,0c-0.1,0-0.3,0-0.4,0.1s-0.3,0.2-0.4,0.3
				c0.4-0.3,0.6-0.6,0.9-0.9s0.4-0.4,0.6-0.6c0.2-0.2,0.3-0.3,0.5-0.4c0.1-0.1,0.2-0.2,0.4-0.2s0.2,0,0.4,0s0.4,0.1,0.5,0.2
				s0.3,0.3,0.4,0.7c0,0.1,0.1,0.3,0.1,0.5s0,0.4,0.1,0.7s0,0.6,0,0.9s0,0.7,0,1c0,1.6,0,3.2-0.1,4.8s-0.2,3.1-0.3,4.6
				c0.2-0.4,0.4-0.7,0.6-1s0.4-0.6,0.6-0.8c0.2-0.2,0.4-0.5,0.6-0.6c0.6-0.5,1.1-0.9,1.6-1.2s0.9-0.4,1.3-0.4c0.3,0,0.5,0.1,0.7,0.2
				s0.4,0.3,0.5,0.6s0.2,0.5,0.3,0.8s0.1,0.6,0.2,0.9s0.1,0.6,0.1,0.8s0,0.5,0,0.7c0,0.7-0.1,1.4-0.2,2.1s-0.4,1.4-0.7,2
				s-0.7,1.2-1.1,1.8s-0.9,1-1.5,1.5s-1.2,0.7-1.8,1S159,28.7,158.2,28.7L158.2,28.7z M158.7,26.9c0.3,0.1,0.6,0.2,0.8,0.2
				s0.5,0.1,0.7,0.1s0.4,0,0.6,0c0.7-0.2,1.2-0.4,1.6-0.8s0.7-0.8,0.9-1.3s0.4-1.1,0.4-1.6s0.1-1.2,0.1-1.7c0-0.2,0-0.4,0-0.7
				s0-0.6-0.1-0.9s-0.1-0.6-0.2-0.9s-0.2-0.6-0.3-0.8s-0.3-0.4-0.4-0.6s-0.4-0.2-0.6-0.2c-0.2,0-0.3,0-0.5,0.1s-0.3,0.2-0.4,0.3
				c-0.2,0.2-0.5,0.6-0.7,1s-0.4,0.8-0.7,1.4s-0.4,1.1-0.6,1.6s-0.4,1.2-0.5,1.8L158.7,26.9L158.7,26.9z"/>
			<path class="st0" d="M174,24.9c-0.4,0.5-0.8,0.9-1.1,1.2s-0.6,0.7-0.9,0.9c-0.3,0.3-0.6,0.5-0.8,0.7c-0.7,0.6-1.3,0.8-1.8,0.8
				c-0.3,0-0.5-0.1-0.7-0.2s-0.4-0.3-0.5-0.6s-0.3-0.5-0.4-0.8s-0.2-0.6-0.2-0.9s-0.1-0.6-0.1-0.9s0-0.5,0-0.7
				c0-0.5,0.1-1.1,0.2-1.7s0.3-1.2,0.5-1.8s0.5-1.2,0.9-1.8s0.7-1.1,1.1-1.5s0.9-0.8,1.4-1s1.1-0.4,1.7-0.4c0.2,0,0.3,0,0.4,0.1
				s0.2,0.1,0.3,0.2s0.1,0.2,0.1,0.3s0,0.2,0,0.4c0,0.3-0.1,0.7-0.2,1s-0.4,0.7-0.6,1s-0.6,0.7-0.9,1s-0.7,0.6-1.1,0.9
				s-0.7,0.6-1.1,0.8s-0.7,0.5-1,0.7v0.3c0,0.2,0,0.4,0,0.7s0.1,0.6,0.1,0.9s0.1,0.6,0.2,0.9s0.2,0.6,0.3,0.8s0.3,0.4,0.5,0.6
				s0.4,0.2,0.6,0.2c0.1,0,0.2,0,0.3-0.1s0.2-0.1,0.4-0.2c0.2-0.2,0.4-0.4,0.7-0.7c0.2-0.2,0.5-0.6,0.8-1s0.6-0.9,0.9-1.5L174,24.9
				L174,24.9z M171.8,18c-0.1-0.1-0.2-0.2-0.4-0.2s-0.3,0-0.5,0s-0.3,0.1-0.5,0.3s-0.3,0.3-0.4,0.5c-0.2,0.3-0.3,0.8-0.5,1.3
				s-0.3,1.2-0.4,2c0.2-0.2,0.5-0.3,0.8-0.5s0.5-0.4,0.8-0.6s0.5-0.4,0.7-0.7s0.4-0.5,0.5-0.7s0.2-0.5,0.2-0.7S172,18.2,171.8,18
				L171.8,18z"/>
		</g>
	</g>
</g>
<g>
	<g id="container-3_00000168082584597591511830000016702140522837631416_" transform="translate(2.000000, 2.000000)">
		<path id="mask-3_00000168828396002963670940000006519363251227536533_" class="st1" d="M5.9-0.6h19.8c3.6,0,6.6,3,6.6,6.6v19.8
			c0,3.6-3,6.6-6.6,6.6H5.9c-3.6,0-6.6-3-6.6-6.6V6C-0.7,2.3,2.3-0.6,5.9-0.6z"/>
	</g>
	<g id="color-wheel-_1_-3_00000178192596121581829890000008741831924759618712_" transform="translate(11.000000, 11.000000)">
		<path id="Shape-27_00000155840739754154799690000014873307586513133222_" class="st2" d="M-3.4,12.9c0.5,0.9,1.2,1.7,1.9,2.5
			c2.3,2.3,5.3,3.5,8.5,3.5s6.2-1.2,8.5-3.5c0.8-0.8,1.4-1.6,1.9-2.5c1-1.8,1.6-3.9,1.6-6s-0.6-4.2-1.6-6c-0.5-0.9-1.2-1.7-1.9-2.5
			C13.2-3.9,10.2-5.1,7-5.1S0.8-3.8-1.5-1.6C-2.2-0.8-2.9,0-3.4,0.9C-4.5,2.7-5,4.8-5,6.9S-4.4,11.1-3.4,12.9L-3.4,12.9z M3.9,6.9
			c0-0.6,0.1-1.1,0.4-1.5c0.5-0.9,1.5-1.5,2.6-1.5S9,4.5,9.5,5.4c0.3,0.4,0.4,1,0.4,1.5S9.8,8,9.5,8.4C9,9.3,8,9.9,6.9,9.9
			S4.8,9.3,4.3,8.4C4.1,8,3.9,7.5,3.9,6.9z"/>
		<path id="Shape-28_00000137115010206608706470000007974598576848351109_" class="st3" d="M7,14.4v4.5c3.2,0,6.2-1.2,8.5-3.5
			c0.8-0.8,1.4-1.6,1.9-2.5l-3.9-2.2C12.2,12.9,9.8,14.4,7,14.4z"/>
		<path id="Shape-29_00000108997625050029325140000005062647469554994323_" class="st4" d="M14.5,6.9c0,1.4-0.4,2.7-1,3.8l3.9,2.2
			c1-1.8,1.6-3.9,1.6-6s-0.6-4.2-1.6-6l-3.9,2.2C14.1,4.2,14.5,5.5,14.5,6.9z"/>
		<path id="Shape-30_00000068644735410312685620000011170374059241467285_" class="st5" d="M0.5,10.7l-3.9,2.2
			c0.5,0.9,1.2,1.7,1.9,2.5c2.3,2.3,5.3,3.5,8.5,3.5v-4.5C4.2,14.4,1.8,12.9,0.5,10.7z"/>
		<path id="Shape-31_00000130632097812150187040000009692931697238537861_" class="st6" d="M13.5,3.1l3.9-2.2
			c-0.5-0.9-1.2-1.7-1.9-2.5C13.2-3.9,10.2-5.1,7-5.1v4.5C9.8-0.6,12.2,0.9,13.5,3.1z"/>
		<path id="Shape-32_00000047773581814313587500000010874749105297110454_" class="st7" d="M-3.4,12.9l3.9-2.2c-0.6-1.1-1-2.4-1-3.8
			s0.3-2.7,1-3.8l-3.9-2.2C-4.5,2.7-5,4.8-5,6.9S-4.4,11.1-3.4,12.9z"/>
		<path id="Shape-33_00000140721299938000208390000012761793163317228160_" class="st8" d="M7-0.6v-4.5c-3.2,0-6.2,1.2-8.5,3.5
			C-2.2-0.8-2.9,0-3.4,0.9l3.9,2.2C1.8,0.9,4.2-0.6,7-0.6z"/>
		<path id="Shape-34_00000075155772867797362140000000109260466829814916_" class="st6" d="M10,6.9C10,7.5,9.9,8,9.6,8.4l3.9,2.2
			c0.6-1.1,1-2.4,1-3.8s-0.4-2.6-1-3.7L9.6,5.3C9.9,5.8,10,6.3,10,6.9z"/>
		<path id="Shape-35_00000028301753276213680750000000308238189147375253_" class="st9" d="M9.7,5.4l3.8-2.3C12.2,0.9,9.8-0.7,7-0.7
			v4.5C8.1,3.8,9.1,4.5,9.7,5.4L9.7,5.4z"/>
		<path id="Shape-36_00000075853285525477338640000016075692602460905869_" class="st10" d="M7,10v4.5c2.8,0,5.2-1.5,6.5-3.8
			L9.6,8.5C9.1,9.3,8.1,10,7,10L7,10z"/>
		<path id="Shape-37_00000027596110650060484370000010288727974465170831_" class="st11" d="M7,14.4V9.9c-1.1,0-2.1-0.6-2.6-1.5
			l-3.9,2.3C1.8,12.9,4.2,14.4,7,14.4L7,14.4z"/>
		<path id="Shape-38_00000078725410440594895150000002292499316959463330_" class="st12" d="M3.9,6.9c0-0.6,0.1-1.1,0.4-1.5L0.5,3.1
			c-0.7,1.1-1,2.4-1,3.8s0.4,2.7,1,3.8l3.9-2.2C4.1,8,3.9,7.5,3.9,6.9z"/>
		<path id="Shape-39_00000146501806654490114200000016326573311689675449_" class="st13" d="M7,3.8v-4.4c-2.8,0-5.2,1.5-6.5,3.7
			l3.9,2.2C4.9,4.4,5.9,3.8,7,3.8L7,3.8z"/>
	</g>
</g>
</svg>
