<?xml version="1.0" encoding="utf-8"?>
<!-- Generator: Adobe Illustrator 26.3.1, SVG Export Plug-In . SVG Version: 6.00 Build 0)  -->
<svg version="1.1" id="Laag_1" xmlns="http://www.w3.org/2000/svg" xmlns:xlink="http://www.w3.org/1999/xlink" x="0px" y="0px"
	 viewBox="0 0 205.4 35.4" style="enable-background:new 0 0 205.4 35.4;" xml:space="preserve">
<style type="text/css">
	.st0{fill:#947798;}
	.st1{fill:none;stroke:#947798;stroke-miterlimit:10;}
	.st2{fill:#EF8198;}
	.st3{fill:#72B95A;}
	.st4{fill:#2D85C7;}
	.st5{fill:#FFD405;}
	.st6{fill:#0565A4;}
	.st7{fill:#F38F1C;}
	.st8{fill:#E94C4E;}
	.st9{fill:#025284;}
	.st10{fill:#1AA95F;}
	.st11{fill:#F59D1C;}
	.st12{fill:#E94F1E;}
	.st13{fill:#E50D49;}
</style>
<g id="design1_vector">
	<g id="design-and-ux_color-wheel">
		<g>
			<path class="st0" d="M61.1,11c0.7,0.6,1,1.3,1,2.3c0,0.8-0.2,1.5-0.7,2.3c-0.4,0.8-1,1.5-1.7,2s-1.5,1-2.4,1.2l-0.4-0.6
				c0.7-0.3,1.2-0.8,1.7-1.5c0.4-0.7,0.6-1.4,0.6-2.1c0-0.9-0.2-1.6-0.7-2.2c-0.5-0.6-1.1-0.8-1.9-0.8c-0.8,0-1.6,0.3-2.4,1
				c-0.7,0.7-1.3,1.6-1.8,2.7c-0.4,1.1-0.7,2.4-0.7,3.7s0.2,2.5,0.6,3.6c0.4,1,1,1.8,1.7,2.4s1.6,0.9,2.6,0.9c0.7,0,1.4-0.2,2.1-0.5
				c0.7-0.3,1.4-0.8,2-1.5l0.7,0.6c-0.8,1-1.7,1.8-2.8,2.4s-2.3,1-3.5,1c-1.3,0-2.5-0.3-3.4-0.9s-1.7-1.5-2.3-2.5s-0.8-2.3-0.8-3.7
				c0-2,0.4-3.7,1.3-5.4s2.1-2.9,3.6-3.8c1.5-0.9,3.2-1.4,5-1.4C59.5,10.2,60.4,10.4,61.1,11L61.1,11z"/>
			<path class="st0" d="M69.1,16c-1.1,0.8-1.9,1.6-2.5,2.6s-0.9,2.1-0.9,3.4c0,0.7,0.1,1.4,0.4,2.1s0.7,1.3,1.2,1.8s1.2,0.7,1.9,0.7
				c0.9,0,1.7-0.3,2.2-1s0.8-1.5,0.8-2.5c0-0.8-0.2-1.5-0.6-2.3s-0.9-1.4-1.6-2s-1.4-0.8-2.1-0.9c0.3-0.4,0.7-0.7,1.1-1
				s0.9-0.7,1.5-1.1c1.2,0.4,2.1,1.1,2.8,2.1c0.7,1,1,2.2,1,3.4c0,1.1-0.2,2.2-0.7,3.2s-1.2,1.9-2.1,2.5s-2,1-3.2,1
				c-1,0-1.9-0.2-2.8-0.7s-1.5-1.1-2-1.9c-0.5-0.8-0.7-1.7-0.7-2.7c0-1.7,0.5-3.2,1.6-4.5c1.1-1.3,2.5-2.2,4.2-2.7L69.1,16L69.1,16z
				"/>
			<path class="st0" d="M80.2,25.5c0,0.2,0.1,0.4,0.2,0.5c0.1,0.2,0.3,0.2,0.5,0.2s0.4-0.1,0.7-0.3c0.2-0.2,0.4-0.4,0.6-0.6l0.4,0.5
				c-0.3,0.5-0.7,1-1.2,1.4s-1.1,0.6-1.7,0.6c-1.6,0-2.3-0.8-2.3-2.5V6.5l2.9-1L80.2,25.5L80.2,25.5z"/>
			<path class="st0" d="M90.1,16c-1.1,0.8-1.9,1.6-2.5,2.6s-0.9,2.1-0.9,3.4c0,0.7,0.1,1.4,0.4,2.1s0.7,1.3,1.2,1.8s1.2,0.7,1.9,0.7
				c0.9,0,1.7-0.3,2.2-1s0.8-1.5,0.8-2.5c0-0.8-0.2-1.5-0.6-2.3s-0.9-1.4-1.6-2s-1.4-0.8-2.1-0.9c0.3-0.4,0.7-0.7,1.1-1
				s0.9-0.7,1.5-1.1c1.2,0.4,2.1,1.1,2.8,2.1c0.7,1,1,2.2,1,3.4c0,1.1-0.2,2.2-0.7,3.2s-1.2,1.9-2.1,2.5s-2,1-3.2,1
				c-1,0-1.9-0.2-2.8-0.7s-1.5-1.1-2-1.9c-0.5-0.8-0.7-1.7-0.7-2.7c0-1.7,0.5-3.2,1.6-4.5s2.5-2.2,4.2-2.7L90.1,16L90.1,16z"/>
			<path class="st0" d="M102.7,18.9l-0.1-0.1c-0.5,0.3-1.2,0.5-2,0.5c-0.5,0-0.9-0.1-1.4-0.2l-1.6,3.3l-1-0.4l1.6-3.3
				c0,0-0.2-0.2-0.5-0.4c-0.3-0.2-0.4-0.5-0.5-0.7l2.3-2.6c0.2,0.7,0.5,1.2,1,1.7s1.1,0.7,1.7,0.7c1,0,2-0.4,3.1-1.1l0.4,0.5
				c-0.9,0.9-1.7,1.9-2.4,3.1c-0.7,1.2-1,2.4-1,3.6c0,0.7,0.2,1.4,0.6,1.9s0.9,0.7,1.6,0.7c0.5,0,1-0.2,1.5-0.5l0.4,0.4
				c-0.5,0.6-1,1.1-1.7,1.4c-0.7,0.4-1.3,0.5-2,0.5c-0.9,0-1.6-0.3-2-0.9c-0.5-0.6-0.7-1.3-0.7-2.2s0.2-2,0.7-3.1
				C101.5,20.6,102,19.7,102.7,18.9L102.7,18.9z"/>
			<path class="st0" d="M116.9,16.1c0.6,0.4,1.1,1,1.5,1.8l-2.5,1.3c-0.2-0.7-0.4-1.2-0.9-1.6c-0.4-0.4-0.9-0.6-1.3-0.6
				c-0.6,0-1.2,0.2-1.7,0.6s-0.9,0.9-1.1,1.5s-0.4,1.3-0.4,2c0,1.1,0.2,2,0.5,2.8s0.8,1.4,1.4,1.8s1.2,0.6,2,0.6
				c1.5,0,2.9-0.8,4.2-2.5l0.6,0.5c-0.8,1.2-1.7,2.1-2.6,2.7s-2,1-3.2,1c-1,0-1.9-0.2-2.7-0.7c-0.8-0.5-1.4-1.1-1.9-2
				s-0.7-1.8-0.7-3s0.3-2.4,0.8-3.4s1.3-1.9,2.4-2.5c1-0.6,2.2-0.9,3.6-0.9C115.6,15.5,116.2,15.7,116.9,16.1L116.9,16.1z"/>
			<path class="st0" d="M126.7,16c-1.1,0.8-1.9,1.6-2.5,2.6s-0.9,2.1-0.9,3.4c0,0.7,0.1,1.4,0.4,2.1s0.7,1.3,1.2,1.8
				s1.2,0.7,1.9,0.7c0.9,0,1.7-0.3,2.2-1s0.9-1.5,0.9-2.5c0-0.8-0.2-1.5-0.6-2.3c-0.4-0.8-0.9-1.4-1.6-2s-1.4-0.8-2.1-0.9
				c0.3-0.4,0.7-0.7,1.1-1s0.9-0.7,1.5-1.1c1.1,0.4,2.1,1.1,2.8,2.1s1,2.2,1,3.4c0,1.1-0.2,2.2-0.7,3.2s-1.2,1.9-2.1,2.5
				c-0.9,0.6-2,1-3.2,1c-1,0-1.9-0.2-2.8-0.7s-1.5-1.1-2-1.9s-0.7-1.7-0.7-2.7c0-1.7,0.5-3.2,1.6-4.5s2.5-2.2,4.2-2.7L126.7,16
				L126.7,16z"/>
			<path class="st0" d="M143,16.2c0.7,0.3,1.3,0.9,1.6,1.6l-2.3,1c-0.2-0.4-0.5-0.8-0.9-1c-0.4-0.3-0.8-0.4-1.3-0.4
				c-1.1,0-1.9,0.4-2.5,1.3s-0.9,2-0.9,3.4c0,1.2,0.2,2.2,0.6,3s0.9,1.2,1.8,1.2c1.1,0,1.9-0.5,2.3-1.6c0.4-1,0.6-2.2,0.6-3.4v-1.1
				l2.8-1v6.2c0,0.2,0.1,0.4,0.2,0.6s0.3,0.2,0.5,0.2c0.4,0,0.8-0.3,1.2-0.8l0.5,0.5c-0.2,0.6-0.6,1-1.1,1.4s-1.1,0.6-1.7,0.6
				c-0.8,0-1.3-0.3-1.7-0.8s-0.5-1.2-0.5-2h-0.4c-0.4,0.9-0.9,1.6-1.5,2.1s-1.4,0.8-2.2,0.8c-1.3,0-2.3-0.5-3-1.4s-1-2.2-1-3.7
				c0-1.3,0.3-2.5,0.8-3.6c0.6-1.1,1.3-2,2.3-2.6s2.1-1,3.4-1C141.4,15.7,142.2,15.9,143,16.2L143,16.2z"/>
			<path class="st0" d="M156.8,16.1c0.6,0.4,1.1,1,1.5,1.8l-2.5,1.3c-0.2-0.7-0.4-1.2-0.9-1.6c-0.4-0.4-0.9-0.6-1.3-0.6
				c-0.6,0-1.2,0.2-1.7,0.6s-0.9,0.9-1.1,1.5s-0.4,1.3-0.4,2c0,1.1,0.2,2,0.5,2.8s0.8,1.4,1.4,1.8s1.2,0.6,2,0.6
				c1.5,0,2.9-0.8,4.2-2.5l0.6,0.5c-0.8,1.2-1.6,2.1-2.6,2.7c-0.9,0.6-2,1-3.2,1c-1,0-1.9-0.2-2.7-0.7s-1.4-1.1-1.9-2
				s-0.7-1.8-0.7-3s0.3-2.4,0.8-3.4s1.3-1.9,2.4-2.5c1-0.6,2.2-0.9,3.6-0.9C155.5,15.5,156.2,15.7,156.8,16.1L156.8,16.1z"/>
			<path class="st0" d="M164.3,21.7h0.1c0.4-1.5,0.9-3,1.7-4.3s1.8-2,2.9-2c0.5,0,0.9,0.2,1.2,0.5s0.4,0.7,0.5,1.2s0.1,1,0.1,1.7
				v6.6c0,0.2,0.1,0.4,0.2,0.5s0.3,0.2,0.5,0.2c0.4,0,0.8-0.3,1.2-0.8l0.4,0.5c-0.3,0.5-0.7,1-1.2,1.4s-1.1,0.6-1.7,0.6
				c-1.5,0-2.3-0.8-2.3-2.5V19c0-0.2,0-0.4-0.1-0.6s-0.2-0.2-0.4-0.2c-0.7,0-1.2,0.6-1.7,1.7s-0.9,2.4-1.1,3.9
				c-0.3,1.5-0.4,2.7-0.4,3.6l-2.9,0.6V6.5l2.9-1L164.3,21.7L164.3,21.7z"/>
			<path class="st0" d="M177.1,27.7c-0.3,0.3-0.6,0.4-1,0.4s-0.7-0.1-1-0.4s-0.4-0.6-0.4-1s0.1-0.7,0.4-1s0.6-0.4,1-0.4
				s0.7,0.1,1,0.4s0.4,0.6,0.4,1S177.4,27.4,177.1,27.7z"/>
			<path class="st0" d="M189.7,24.4c-0.6,1-1.4,1.9-2.3,2.6c-0.9,0.7-1.8,1-2.6,1c-1.3,0-2.3-0.4-3.1-1.3s-1.1-2-1.1-3.4V6.4
				l2.2-0.9v18.3c0,0.8,0.2,1.4,0.7,2s1.1,0.9,2,0.9c0.7,0,1.3-0.2,1.8-0.6s0.9-0.9,1.2-1.5s0.4-1.1,0.4-1.7c0-0.8-0.2-1.6-0.6-2.5
				c-0.4-0.9-1-1.5-1.6-2.1c-0.7-0.5-1.4-0.8-2.1-0.8l2.1-1.8c0.7,0.2,1.3,0.6,2,1.3c0.6,0.6,1.1,1.3,1.5,2.1s0.6,1.5,0.6,2.2
				C190.7,22.3,190.3,23.3,189.7,24.4L189.7,24.4z"/>
			<path class="st0" d="M201.8,16.2c0.6,0.5,0.9,1.1,0.9,2.1c0,0.7-0.4,1.6-1.2,2.5s-1.7,1.7-2.8,2.5s-2,1.3-2.7,1.6
				c0.4,0.6,0.9,1.1,1.4,1.3s1.1,0.4,1.8,0.4c0.8,0,1.5-0.2,2.3-0.6s1.4-0.9,1.9-1.5l0.3,0.5c-0.8,1-1.6,1.8-2.5,2.3s-2,0.8-3.2,0.8
				c-1,0-1.9-0.2-2.6-0.7s-1.4-1.1-1.8-1.9s-0.8-1.9-0.8-2.8c0-1.2,0.3-2.3,1-3.5c0.6-1.1,1.5-2,2.5-2.7c1.1-0.7,2.2-1,3.3-1
				C200.5,15.4,201.2,15.7,201.8,16.2L201.8,16.2z M196.5,17.7c-0.6,0.4-1,1-1.3,1.7s-0.5,1.4-0.5,2.2c0,1,0.2,1.8,0.7,2.5
				c0.7-0.3,1.4-0.8,2.2-1.4s1.4-1.3,2-2c0.5-0.7,0.8-1.4,0.8-2c0-1.2-0.7-1.8-2-1.8C197.7,17,197.1,17.2,196.5,17.7L196.5,17.7z"/>
		</g>
	</g>
</g>
<g>
	<g id="container-3_00000093157638991640137280000016044561226408819615_" transform="translate(2.000000, 2.000000)">
		<path id="mask-3_00000123439273762644851510000003351807581628640439_" class="st1" d="M5.6-1h19.8C29-1,32,2,32,5.6v19.8
			c0,3.6-3,6.6-6.6,6.6H5.6C2,32-1,29-1,25.4V5.6C-0.9,2,2-1,5.6-1z"/>
	</g>
	<g id="color-wheel-_1_-3_00000140719082643920693380000015467754982415540133_" transform="translate(11.000000, 11.000000)">
		<path id="Shape-27_00000081624749838309582740000000490064537650745277_" class="st2" d="M-3.7,12.5c0.5,0.9,1.2,1.7,1.9,2.5
			c2.3,2.3,5.3,3.5,8.5,3.5s6.2-1.2,8.5-3.5c0.8-0.8,1.4-1.6,1.9-2.5c1-1.8,1.6-3.9,1.6-6s-0.6-4.2-1.6-6c-0.5-0.9-1.2-1.7-1.9-2.5
			c-2.3-2.3-5.3-3.5-8.5-3.5S0.5-4.2-1.7-1.9c-0.8,0.8-1.4,1.6-1.9,2.5c-1.1,1.8-1.6,3.9-1.6,6S-4.7,10.7-3.7,12.5L-3.7,12.5z
			 M3.7,6.5c0-0.6,0.1-1.1,0.4-1.5c0.5-0.9,1.5-1.5,2.6-1.5S8.8,4.1,9.3,5c0.3,0.4,0.4,1,0.4,1.5S9.6,7.6,9.3,8
			C8.8,8.9,7.8,9.5,6.7,9.5S4.6,8.9,4.1,8C3.8,7.6,3.7,7.1,3.7,6.5z"/>
		<path id="Shape-28_00000135649641233415514350000011674890558165121978_" class="st3" d="M6.8,14.1v4.5c3.2,0,6.2-1.2,8.5-3.5
			c0.8-0.8,1.4-1.6,1.9-2.5l-3.9-2.2C12,12.6,9.5,14.1,6.8,14.1z"/>
		<path id="Shape-29_00000041978209533213077440000007613985540739799734_" class="st4" d="M14.3,6.5c0,1.4-0.4,2.7-1,3.8l3.9,2.2
			c1-1.8,1.6-3.9,1.6-6s-0.6-4.2-1.6-6l-3.9,2.2C13.9,3.9,14.3,5.2,14.3,6.5z"/>
		<path id="Shape-30_00000043443531433496538220000003082792395884918937_" class="st5" d="M0.2,10.3l-3.9,2.2
			c0.5,0.9,1.2,1.7,1.9,2.5c2.3,2.3,5.3,3.5,8.5,3.5V14C4,14.1,1.5,12.6,0.2,10.3z"/>
		<path id="Shape-31_00000111149753517999135540000004810057102148797105_" class="st6" d="M13.3,2.8l3.9-2.2
			c-0.5-0.9-1.2-1.7-1.9-2.5C13-4.2,10-5.5,6.8-5.5V-1C9.6-1,12,0.5,13.3,2.8z"/>
		<path id="Shape-32_00000067200355406147827060000004961950432138018979_" class="st7" d="M-3.7,12.5l3.9-2.2c-0.6-1.1-1-2.4-1-3.8
			s0.4-2.7,1-3.8l-3.9-2.2c-1.1,1.8-1.6,3.9-1.6,6S-4.7,10.7-3.7,12.5z"/>
		<path id="Shape-33_00000021095300115177283450000005594106066360222640_" class="st8" d="M6.8-1v-4.5C3.6-5.5,0.6-4.3-1.7-2
			c-0.8,0.8-1.4,1.6-1.9,2.5l3.9,2.2C1.5,0.5,4-1,6.8-1z"/>
		<path id="Shape-34_00000131341416818562972910000004212903194595411104_" class="st6" d="M9.8,6.5c0,0.6-0.1,1.1-0.4,1.5l3.9,2.2
			c0.6-1.1,1-2.4,1-3.8s-0.4-2.7-1-3.8L9.4,4.8C9.6,5.5,9.8,6,9.8,6.5z"/>
		<path id="Shape-35_00000137822927281654971270000011198721358174794416_" class="st9" d="M9.4,5l3.9-2.2C12,0.5,9.5-1,6.8-1v4.5
			C7.9,3.5,8.9,4.1,9.4,5L9.4,5z"/>
		<path id="Shape-36_00000028304843733915505120000016979035435220254889_" class="st10" d="M6.8,9.6v4.5c2.8,0,5.2-1.5,6.5-3.8
			L9.4,8.1C8.9,9,7.9,9.6,6.8,9.6L6.8,9.6z"/>
		<path id="Shape-37_00000056396750953118548010000007920034094207286179_" class="st11" d="M6.8,14.1V9.6C5.7,9.6,4.7,9,4.2,8.1
			l-3.9,2.2C1.5,12.5,4,14.1,6.8,14.1L6.8,14.1z"/>
		<path id="Shape-38_00000123429663511772479100000008642502655723020425_" class="st12" d="M3.7,6.5c0-0.6,0.1-1.1,0.4-1.5L0.2,2.8
			c-0.6,1.1-1,2.4-1,3.8s0.4,2.7,1,3.8l3.9-2.2C3.8,7.6,3.7,7.1,3.7,6.5z"/>
		<path id="Shape-39_00000105422866066505151190000012246028304161493163_" class="st13" d="M6.8,3.5V-1C4-1,1.6,0.5,0.3,2.8L4.2,5
			C4.6,4.1,5.6,3.5,6.8,3.5L6.8,3.5z"/>
	</g>
</g>
</svg>
